# xmcd
# 
# Track frame offsets:
#     150
#     42957
#     64615
#     105765
#     129262
#     161270
#     203847
# 
# Disc length: 3009
# 
# Revision: 1
# Processed by: cddbd v1.5.2PL0 Copyright (c) Steve Scherf et al.
# Submitted via: fre:ac v1.0.17
# 
DISCID=4b0bbf07
DTITLE=Hu Gong - 中国の美音・胡弓
DYEAR=0
DGENRE=
TTITLE0=Yi Zhi Hua
TTITLE1=Kong Shan Niao Yu
TTITLE2=Jiang He Shui
TTITLE3=Guang Ming Xing
TTITLE4=Bing Zhong Yin
TTITLE5=Xun Feng Qu
TTITLE6=Sai Ma
EXTD=
EXTT0=
EXTT1=
EXTT2=
EXTT3=
EXTT4=
EXTT5=
EXTT6=
PLAYORDER=
